<?xml version="1.0" standalone="no"?>
<!DOCTYPE svg PUBLIC "-//W3C//DTD SVG 20010904//EN"
 "http://www.w3.org/TR/2001/REC-SVG-20010904/DTD/svg10.dtd">
<svg version="1.0" xmlns="http://www.w3.org/2000/svg"
 width="500.000000pt" height="500.000000pt" viewBox="0 0 500.000000 500.000000"
 preserveAspectRatio="xMidYMid meet">
<metadata>
Created by potrace 1.14, written by Peter Selinger 2001-2017
</metadata>
<g transform="translate(0.000000,500.000000) scale(0.100000,-0.100000)"
fill="#000000" stroke="none">
<path d="M2511 4289 c-69 -13 -126 -46 -189 -110 -49 -51 -68 -62 -117 -75
-77 -20 -138 -63 -172 -122 -23 -39 -28 -59 -28 -112 1 -41 7 -76 17 -95 25
-47 79 -96 126 -116 51 -22 57 -34 77 -169 8 -57 20 -107 26 -111 7 -4 26 -3
43 2 55 14 109 20 201 23 95 3 215 -10 215 -24 0 -7 -44 -16 -125 -26 -16 -2
-71 -4 -122 -6 -157 -5 -84 -20 96 -20 180 0 234 9 252 43 5 11 17 59 25 107
33 194 31 189 70 195 98 16 164 80 171 165 6 77 -51 152 -127 167 -44 8 -60
17 -60 30 0 31 -53 132 -88 168 -70 73 -182 106 -291 86z m173 -73 c96 -56
139 -139 141 -271 1 -89 1 -90 25 -87 31 3 31 3 41 58 5 26 11 50 14 52 9 10
56 -22 77 -51 44 -62 32 -149 -28 -196 -33 -26 -70 -26 -156 -2 -78 22 -247
23 -287 2 -34 -19 -13 -30 40 -22 59 9 130 4 197 -15 l54 -15 -6 -37 c-6 -41
-13 -81 -28 -160 -9 -49 -12 -53 -32 -48 -72 18 -204 23 -311 12 -133 -14
-117 -25 -136 89 -17 104 -15 115 24 115 28 0 79 30 74 43 -4 12 -16 12 -92 4
-22 -2 -60 2 -85 9 -115 35 -174 169 -117 269 25 43 88 92 127 97 23 3 25 0
20 -32 -10 -79 -6 -134 11 -138 28 -5 45 23 48 79 5 108 86 229 176 264 59 22
153 14 209 -19z"/>
<path d="M1585 3519 c-455 -82 -1101 -304 -1368 -472 -26 -16 -46 -31 -44 -33
2 -2 32 10 68 27 84 41 355 147 493 193 164 55 543 153 658 170 21 3 75 12
120 20 46 8 112 18 146 22 68 7 79 17 68 59 -6 22 -11 25 -49 24 -23 -1 -64
-5 -92 -10z"/>
<path d="M3282 3494 l3 -39 140 -21 c194 -30 202 -31 307 -54 370 -82 808
-225 1031 -337 27 -13 53 -23 58 -21 15 5 -269 144 -436 213 -267 111 -590
208 -865 259 -47 9 -96 18 -110 21 -14 3 -49 8 -78 11 l-53 6 3 -38z"/>
<path d="M2678 3155 c-3 -3 -451 -14 -611 -15 l-78 0 3 -92 3 -93 128 2 127 2
1 -102 c1 -56 2 -145 4 -197 2 -52 3 -150 4 -218 l1 -123 118 3 117 3 -3 190
c-2 105 -4 248 -5 320 l-2 129 120 4 c66 2 122 5 124 8 4 4 1 167 -3 172 -5 4
-44 11 -48 7z"/>
<path d="M2876 3129 c-2 -8 -7 -39 -11 -69 -3 -30 -8 -68 -10 -85 -5 -40 -37
-303 -40 -335 -2 -26 -14 -117 -20 -160 -2 -14 -7 -55 -10 -92 l-7 -68 28 0
c16 -1 45 -3 64 -5 19 -3 107 -14 195 -25 88 -10 187 -23 220 -27 33 -4 80 -7
105 -8 l45 0 10 83 c6 46 9 85 5 86 -3 2 -36 7 -74 11 -38 4 -79 8 -90 10 -32
5 -105 14 -166 21 -30 4 -62 8 -70 9 -10 1 -15 14 -16 34 0 53 11 116 21 115
6 -1 41 -5 78 -9 37 -3 76 -8 85 -9 9 -2 49 -7 87 -10 39 -4 77 -9 86 -12 18
-5 22 9 34 117 5 43 4 56 -7 56 -7 0 -76 8 -153 18 -77 9 -150 18 -163 20 -33
4 -35 8 -25 77 7 54 11 63 28 61 11 -1 45 -5 75 -8 30 -3 75 -8 100 -11 25 -2
56 -6 70 -9 14 -2 53 -7 88 -10 l62 -7 1 29 c0 15 2 37 4 48 2 11 5 38 7 60 3
39 2 39 -37 46 -22 4 -69 10 -105 14 -36 3 -76 8 -90 10 -14 2 -50 6 -80 10
-30 3 -72 8 -92 11 -187 25 -227 27 -232 13z"/>
<path d="M1718 3096 c-42 -6 -79 -13 -82 -16 -3 -3 6 -91 19 -195 31 -239 37
-276 40 -295 1 -8 6 -44 10 -80 4 -36 9 -72 10 -81 2 -9 6 -38 10 -65 3 -27 8
-58 10 -69 2 -11 4 -24 4 -28 1 -5 5 -6 9 -3 5 3 49 10 98 16 122 15 125 16
119 48 -3 15 -14 99 -25 187 -12 88 -23 174 -25 190 -3 17 -7 48 -10 70 -26
212 -36 293 -40 313 -6 25 -23 26 -147 8z"/>
<path d="M950 2939 c-129 -33 -239 -64 -243 -68 -5 -5 0 -42 12 -82 11 -41 52
-200 92 -354 95 -371 90 -355 99 -355 18 0 448 112 490 128 102 38 177 97 202
161 24 61 -1 166 -52 219 -24 25 -100 62 -128 62 -16 1 -16 2 -1 13 44 34 68
137 46 201 -29 86 -95 128 -206 132 -66 3 -108 -5 -311 -57z m282 -146 c26
-23 23 -77 -4 -103 -12 -11 -40 -25 -63 -31 -22 -6 -61 -18 -87 -26 -72 -22
-79 -18 -98 65 -9 39 -14 72 -11 72 3 1 47 12 96 25 95 26 137 25 167 -2z
m121 -305 c9 -11 17 -35 17 -53 0 -36 -19 -61 -57 -76 -40 -15 -224 -62 -227
-58 -2 2 -13 39 -23 81 l-20 77 26 6 c14 4 35 9 46 11 11 3 49 13 85 22 77 22
128 18 153 -10z"/>
<path d="M3776 2961 c-170 -59 -229 -254 -112 -373 23 -24 67 -57 97 -74 205
-118 226 -134 211 -174 -28 -76 -197 -38 -335 74 l-54 44 -60 -72 -60 -72 41
-37 c23 -21 82 -58 131 -82 252 -125 466 -100 547 65 63 127 13 234 -151 327
-36 21 -74 41 -84 45 -39 16 -105 68 -110 87 -3 12 3 31 15 46 24 31 79 34
154 8 56 -19 82 -34 141 -80 l41 -33 56 72 c31 39 56 75 56 79 0 4 -33 29 -73
56 -139 93 -335 134 -451 94z"/>
<path d="M2359 2114 c-200 -31 -352 -105 -468 -229 -105 -112 -152 -222 -153
-355 -2 -255 190 -473 502 -572 66 -20 95 -23 245 -23 94 0 189 4 212 8 186
35 370 145 470 281 74 100 101 182 101 302 0 143 -52 257 -168 375 -63 63 -92
83 -180 126 -187 90 -364 118 -561 87z"/>
<path d="M1619 1736 c-2 -2 -22 -6 -44 -9 -90 -13 -124 -19 -200 -33 -153 -30
-386 -104 -612 -193 -126 -50 -243 -94 -260 -97 -37 -7 -36 -19 3 -28 78 -20
148 -107 157 -198 10 -93 7 -93 281 12 171 65 432 139 551 155 28 3 106 16
130 20 11 2 26 4 33 4 13 1 12 24 -7 128 -14 75 -6 147 22 197 l26 46 -38 0
c-21 0 -40 -2 -42 -4z"/>
<path d="M3335 1693 c37 -74 37 -150 0 -294 -6 -26 -5 -27 47 -34 201 -26 480
-98 684 -176 60 -22 131 -50 159 -60 52 -20 100 -25 109 -11 3 5 7 30 11 58
12 99 61 163 155 200 l43 17 -99 32 c-54 18 -148 54 -209 79 -222 95 -534 185
-732 212 -26 3 -50 8 -53 9 -3 2 -36 6 -73 10 l-67 7 25 -49z"/>
<path d="M780 1636 c-215 -65 -453 -168 -678 -294 -72 -40 -80 -47 -60 -53
104 -28 177 -110 194 -216 3 -21 9 -42 14 -46 10 -11 370 170 377 189 7 19
-33 80 -71 109 -17 13 -57 34 -89 46 -31 12 -57 25 -57 29 0 20 140 83 355
159 131 47 181 74 169 92 -9 15 -76 9 -154 -15z"/>
<path d="M4072 1650 c9 -27 55 -51 193 -100 177 -64 322 -128 329 -146 3 -8 1
-14 -4 -14 -5 0 -42 -16 -83 -35 -76 -36 -113 -73 -123 -123 -5 -26 -1 -30 57
-57 34 -17 120 -60 190 -96 l128 -65 6 40 c15 96 81 191 149 216 17 7 40 15
50 19 16 6 10 13 -40 43 -219 132 -654 310 -791 324 -53 6 -65 4 -61 -6z"/>
</g>
</svg>
